<?xml version="1.0" standalone="no"?>
<!DOCTYPE svg PUBLIC "-//W3C//DTD SVG 20010904//EN"
 "http://www.w3.org/TR/2001/REC-SVG-20010904/DTD/svg10.dtd">
<svg version="1.0" xmlns="http://www.w3.org/2000/svg"
 width="334.000000pt" height="379.000000pt" viewBox="0 0 334.000000 379.000000"
 preserveAspectRatio="xMidYMid meet">

<g transform="translate(0.000000,379.000000) scale(0.100000,-0.100000)"
fill="#000000" stroke="none">
<path d="M480 3380 l0 -130 535 0 535 0 2 -1427 3 -1427 63 -37 64 -37 61 36
c34 19 65 40 69 46 4 6 8 649 8 1429 l0 1417 535 0 536 0 -3 128 -3 127 -1202
3 -1203 2 0 -130z"/>
<path d="M480 1991 l0 -979 394 -226 c217 -124 397 -226 400 -226 3 0 5 275 4
612 l-3 612 -125 72 c-69 40 -125 77 -125 83 0 6 56 44 125 84 l125 72 3 438
2 437 -400 0 -400 0 0 -979z m540 490 l0 -229 -131 -76 c-72 -42 -135 -76
-140 -76 -5 0 -9 127 -9 305 l0 305 140 0 140 0 0 -229z m-133 -777 l133 -76
0 -310 0 -310 -77 43 c-43 23 -105 58 -138 78 l-60 36 -3 308 c-1 169 1 307 5
307 4 0 67 -34 140 -76z"/>
<path d="M2080 1765 c0 -958 3 -1205 13 -1204 6 0 73 36 147 79 74 44 251 146
392 227 l258 148 0 386 0 385 -136 78 c-119 69 -133 80 -117 90 10 7 71 43
136 80 l117 68 0 434 0 434 -405 0 -405 0 0 -1205z m538 714 l-3 -232 -125
-73 c-69 -40 -128 -73 -132 -74 -5 0 -8 137 -8 305 l0 305 135 0 135 0 -2
-231z m-101 -785 l103 -59 0 -235 0 -235 -122 -70 c-67 -38 -128 -71 -135 -73
-11 -3 -13 68 -13 383 l0 387 33 -19 c17 -11 78 -46 134 -79z"/>
</g>
</svg>
