<?xml version="1.0" encoding="UTF-8"?>
<!DOCTYPE svg PUBLIC "-//W3C//DTD SVG 1.1//EN" "http://www.w3.org/Graphics/SVG/1.1/DTD/svg11.dtd">
<svg xmlns="http://www.w3.org/2000/svg" version="1.1" width="32px" height="32px" style="shape-rendering:geometricPrecision; text-rendering:geometricPrecision; image-rendering:optimizeQuality; fill-rule:evenodd; clip-rule:evenodd" xmlns:xlink="http://www.w3.org/1999/xlink">
<g><path style="opacity:0.936" fill="#f30008" d="M 5.5,1.5 C 7.16667,1.5 8.83333,1.5 10.5,1.5C 11.0293,6.82233 11.5293,12.1557 12,17.5C 12.5668,12.166 13.0668,6.83263 13.5,1.5C 15.5,1.5 17.5,1.5 19.5,1.5C 19.1463,5.63719 19.6463,9.63719 21,13.5C 21.3333,9.83333 21.6667,6.16667 22,2.5C 23.3561,1.61983 24.8561,1.28649 26.5,1.5C 25.7334,10.166 24.9001,18.8327 24,27.5C 21.9592,28.4231 19.7925,28.7564 17.5,28.5C 17.5153,24.4402 17.0153,20.4402 16,16.5C 15.7618,20.2222 15.2618,23.8889 14.5,27.5C 12.604,28.4656 10.604,28.7989 8.5,28.5C 7.43447,19.5118 6.43447,10.5118 5.5,1.5 Z"/></g>
</svg>
